<svg width="337" height="271" viewBox="0 0 337 271" fill="none" xmlns="http://www.w3.org/2000/svg">
<path d="M331.343 122.153L280.269 78.1592V27.3392C280.269 18.1502 271.625 10.7033 260.941 10.7033C250.282 10.7033 241.637 18.1502 241.637 27.3392V44.8833L203.609 12.1254C184.807 -4.06104 152.117 -4.03233 133.358 12.1547L5.65399 122.153C-1.88466 128.659 -1.88466 139.187 5.65399 145.684C13.196 152.188 25.4421 152.188 32.9814 145.684L160.673 35.6827C164.833 32.1183 172.165 32.1183 176.303 35.6721L304.017 145.684C307.804 148.936 312.741 150.554 317.677 150.554C322.623 150.554 327.569 148.935 331.344 145.684C338.885 139.188 338.885 128.66 331.343 122.153Z" fill="white"/>
<path d="M175.208 67.2616C171.498 64.0676 165.491 64.0676 161.792 67.2616L49.4627 163.99C47.6893 165.517 46.6838 167.601 46.6838 169.777V240.327C46.6838 256.882 62.2673 270.304 81.486 270.304H137.1V196.116H199.888V270.304H255.502C274.72 270.304 290.304 256.882 290.304 240.327V169.777C290.304 167.601 289.307 165.517 287.525 163.99L175.208 67.2616Z" fill="white"/>
</svg>
